<svg xmlns="http://www.w3.org/2000/svg" width="256" height="256" viewBox="0 0 100 100"><path d="M29.35 97.85Q22.25 97.85 18.40 94Q14.55 90.15 14.55 83.75L14.55 83.75Q14.55 78.35 17.85 74.35Q21.15 70.35 26.75 70.35L26.75 70.35Q31.05 70.35 33.80 71.60Q36.55 72.85 36.55 77.05L36.55 77.05Q36.55 78.85 35.95 81.05L35.95 81.05Q34.15 79.55 32.85 79.00Q31.55 78.45 29.95 78.45L29.95 78.45Q26.65 78.45 24.80 80.65Q22.95 82.85 22.95 85.85L22.95 85.85Q22.95 89.35 25.05 91.10Q27.15 92.85 29.75 92.85L29.75 92.85Q32.15 92.85 33.80 91.90Q35.45 90.95 36.75 88.30Q38.05 85.65 39.25 80.55L39.25 80.55L54.95 9.15Q48.25 11.85 44.55 17.45Q40.85 23.05 40.85 31.05L40.85 31.05Q40.85 34.75 41.55 36.20Q42.25 37.65 42.25 37.85L42.25 37.85Q36.85 37.85 34.20 35.60Q31.55 33.35 31.55 28.15L31.55 28.15Q31.55 21.75 36.80 15.70Q42.05 9.65 50.25 5.90Q58.45 2.15 66.65 2.15L66.65 2.15L70.65 2.15L55.65 73.15Q53.05 85.45 47.05 91.65Q41.05 97.85 29.35 97.85L29.35 97.85ZM77.45 77.55Q74.15 77.55 71.85 75.25Q69.55 72.95 69.55 69.65L69.55 69.65Q69.55 66.35 71.85 64.00Q74.15 61.65 77.45 61.65L77.45 61.65Q80.75 61.65 83.10 64.00Q85.45 66.35 85.45 69.65L85.45 69.65Q85.45 72.95 83.10 75.25Q80.75 77.55 77.45 77.55L77.45 77.55Z" fill="#0b0b0b"></path></svg>