<svg xmlns="http://www.w3.org/2000/svg" width="256" height="256" viewBox="0 0 100 100"><path d="M35.54 83.50Q30.57 83.50 27.88 80.80Q25.18 78.10 25.18 73.63L25.18 73.63Q25.18 69.84 27.49 67.05Q29.80 64.24 33.72 64.24L33.72 64.24Q36.73 64.24 38.66 65.12Q40.58 65.99 40.58 68.94L40.58 68.94Q40.58 70.19 40.16 71.73L40.16 71.73Q38.90 70.69 37.99 70.30Q37.08 69.91 35.96 69.91L35.96 69.91Q33.65 69.91 32.36 71.45Q31.06 72.99 31.06 75.09L31.06 75.09Q31.06 77.55 32.53 78.77Q34.00 79.99 35.82 79.99L35.82 79.99Q37.50 79.99 38.66 79.33Q39.81 78.66 40.72 76.81Q41.63 74.95 42.47 71.38L42.47 71.38L53.46 21.40Q48.77 23.29 46.18 27.21Q43.59 31.13 43.59 36.73L43.59 36.73Q43.59 39.32 44.08 40.34Q44.57 41.35 44.57 41.49L44.57 41.49Q40.79 41.49 38.94 39.92Q37.08 38.34 37.08 34.70L37.08 34.70Q37.08 30.22 40.76 25.99Q44.43 21.75 50.17 19.13Q55.91 16.50 61.66 16.50L61.66 16.50L64.45 16.50L53.95 66.20Q52.13 74.81 47.93 79.16Q43.73 83.50 35.54 83.50L35.54 83.50ZM69.22 69.28Q66.91 69.28 65.30 67.67Q63.69 66.06 63.69 63.75L63.69 63.75Q63.69 61.44 65.30 59.80Q66.91 58.15 69.22 58.15L69.22 58.15Q71.53 58.15 73.17 59.80Q74.81 61.44 74.81 63.75L74.81 63.75Q74.81 66.06 73.17 67.67Q71.53 69.28 69.22 69.28L69.22 69.28Z" fill="#0b0b0b"></path></svg>