<svg xmlns="http://www.w3.org/2000/svg" version="1.1" xmlns:xlink="http://www.w3.org/1999/xlink" xmlns:svgjs="http://svgjs.com/svgjs" width="1600" height="560" preserveAspectRatio="none" viewBox="0 0 1600 560"><g mask="url(&quot;#SvgjsMask1006&quot;)" fill="none"><path d="M1040.6913709510156-4.465179985705198L1054.8628491609463 157.5155571612458 1202.6721080979667-18.636658195635956z" fill="rgba(255, 77, 113, 0.84)" class="triangle-float2"></path><path d="M1385.794,345.972C1438.168,344.057,1474.505,299.889,1500.28,254.256C1525.506,209.595,1541.443,157.446,1518.065,111.79C1492.799,62.449,1441.15,27.737,1385.794,30.674C1334.178,33.413,1301.007,79.526,1275.788,124.645C1251.388,168.298,1233.57,218.409,1255.828,263.192C1280.33,312.49,1330.78,347.983,1385.794,345.972" fill="rgba(255, 77, 113, 0.84)" class="triangle-float1"></path><path d="M513.123,422.416C539.207,424.13,567.859,418.357,581.34,395.961C595.127,373.057,588.218,344.061,573.866,321.506C560.63,300.704,537.756,287.676,513.123,288.75C490.14,289.752,471.951,306.249,460.906,326.429C450.354,345.708,448.346,368.606,458.848,387.912C469.828,408.096,490.195,420.909,513.123,422.416" fill="rgba(255, 77, 113, 0.84)" class="triangle-float3"></path><path d="M305.39457529701684 119.02973644957817L330.32105055470777 1.7598904290756252 213.05120453420523-23.1665848286153 188.1247292765143 94.10326119188726z" fill="rgba(255, 77, 113, 0.84)" class="triangle-float3"></path><path d="M696.3214158885498 274.394868851262L821.745727663769 153.5048087743793 676.1213041155393 108.98295452595448z" fill="rgba(255, 77, 113, 0.84)" class="triangle-float1"></path><path d="M40.42290434273545 193.16271709339873L-22.624226338581536 273.859364442734 129.9443100260798 328.0817367900418z" fill="rgba(255, 77, 113, 0.84)" class="triangle-float2"></path><path d="M97.93109804026474 401.6497575288519L46.22002338692339 322.0216854289712-47.36654743622701 439.4023334589236z" fill="rgba(255, 77, 113, 0.84)" class="triangle-float2"></path><path d="M748.1120686162113 159.0388911238228L676.8316417497779 282.2289326910209 801.2279868057453 284.40027897080574z" fill="rgba(255, 77, 113, 0.84)" class="triangle-float1"></path><path d="M168.7216478250155 583.5236973307371L183.87824592082424 439.3182991610361 39.672847751123214 424.16170106522736 24.516249655314482 568.3670992349284z" fill="rgba(255, 77, 113, 0.84)" class="triangle-float2"></path><path d="M1089.1256613940222 233.69562409709116L1185.1151665681364 348.0914617396822 1299.5110042107276 252.10195656556797 1203.5214990366132 137.70611892297694z" fill="rgba(255, 77, 113, 0.84)" class="triangle-float2"></path><path d="M942.578,208.593C967.64,206.374,989.216,193.443,1002.975,172.378C1018.444,148.694,1030.941,119.153,1017.119,94.472C1003.096,69.431,971.278,64.405,942.578,64.526C914.151,64.646,885.146,71.618,869.115,95.094C850.912,121.75,842.762,157.913,860.301,185.01C876.916,210.68,912.119,211.29,942.578,208.593" fill="rgba(255, 77, 113, 0.84)" class="triangle-float3"></path><path d="M176.06923741512364 86.6243143716444L87.23119719703428 118.9587166815727 208.40363972505193 175.46235458973376z" fill="rgba(255, 77, 113, 0.84)" class="triangle-float3"></path><path d="M1528.3896283876406 84.70395661171413L1593.1153080314564 7.71602068479028 1506.8070212951116-9.060610772167237z" fill="rgba(255, 77, 113, 0.84)" class="triangle-float2"></path></g><defs><mask id="SvgjsMask1006"><rect width="1600" height="560" fill="#ffffff"></rect></mask><style>
            @keyframes float1 {
                0%{transform: translate(0, 0)}
                50%{transform: translate(-10px, 0)}
                100%{transform: translate(0, 0)}
            }

            .triangle-float1 {
                animation: float1 5s infinite;
            }

            @keyframes float2 {
                0%{transform: translate(0, 0)}
                50%{transform: translate(-5px, -5px)}
                100%{transform: translate(0, 0)}
            }

            .triangle-float2 {
                animation: float2 4s infinite;
            }

            @keyframes float3 {
                0%{transform: translate(0, 0)}
                50%{transform: translate(0, -10px)}
                100%{transform: translate(0, 0)}
            }

            .triangle-float3 {
                animation: float3 6s infinite;
            }
        </style></defs></svg>